# xmcd
#
# Track frame offsets: 
#        150
#        12180
#        24385
#        34960
#        53473
#        66685
#        77849
#        91000
#        105283
#        116675
#        130066
#        143590
#        156263
#        169313
#
# Disc length: 2405 seconds
#
# Revision: 0
# Processed by: cddbd v1.5.2PL0 Copyright (c) Steve Scherf et al.
# Submitted via: ExactAudioCopy v1.2
#
DISCID=ad09630e
DTITLE=Hubert#06 - One Man Delta Blues Show
DYEAR=2018
DGENRE=Blues
TTITLE0=Jack O'diamonds
TTITLE1=God Moves on the Water
TTITLE2=Payday
TTITLE3=Tell Me How You Want Your Rolling Done
TTITLE4=Rovin' Gambler
TTITLE5=The River of Jordan
TTITLE6=Highwater Everywhere
TTITLE7=Broken Down Engine Blues
TTITLE8=Two White Horses
TTITLE9=Frankie and Albert
TTITLE10=Six Little Puppies and Twelve Little Shaggy Hounds
TTITLE11=Deep Down Outside
TTITLE12=Big Road Blues
TTITLE13=Stagger Lee
EXTD=
EXTT0=
EXTT1=
EXTT2=
EXTT3=
EXTT4=
EXTT5=
EXTT6=
EXTT7=
EXTT8=
EXTT9=
EXTT10=
EXTT11=
EXTT12=
EXTT13=
PLAYORDER=
